<?xml version="1.0" encoding="utf-8"?>
<!-- Generator: Adobe Illustrator 19.0.0, SVG Export Plug-In . SVG Version: 6.00 Build 0)  -->
<svg version="1.1" id="Warstwa_1" xmlns="http://www.w3.org/2000/svg" xmlns:xlink="http://www.w3.org/1999/xlink" x="0px" y="0px"
	 viewBox="-97 357 400.4 128.9" style="enable-background:new -97 357 400.4 128.9;" xml:space="preserve">
<style type="text/css">
	.st0{fill:#FFFFFF;}
</style>
<g id="XMLID_57_">
	<path id="XMLID_58_" class="st0" d="M-37.5,424.8l-6.3,6.5v11.8h-10.7v-46.7h10.7v21.8l20.7-21.8h12l-19.3,20.9l20.4,25.8h-12.6
		L-37.5,424.8z"/>
	<path id="XMLID_60_" class="st0" d="M-0.7,438.4c-3.7-3.7-5.6-9-5.6-15.8v-26.2H4.5v25.7c0,8.4,3.5,12.5,10.4,12.5c3.4,0,6-1,7.7-3
		c1.8-2,2.7-5.2,2.7-9.5v-25.7H36v26.1c0,6.8-1.9,12.1-5.6,15.8c-3.7,3.7-8.9,5.5-15.6,5.5C8.2,443.9,3.1,442.1-0.7,438.4z"/>
	<path id="XMLID_62_" class="st0" d="M56.2,440.8c-3.8-2.1-6.9-4.9-9.1-8.6c-2.2-3.7-3.3-7.8-3.3-12.4s1.1-8.8,3.3-12.4
		s5.2-6.5,9.1-8.6c3.8-2.1,8.2-3.1,13-3.1c4,0,7.7,0.7,11,2.1s6,3.5,8.2,6.1l-6.9,6.4c-3.2-3.6-7.1-5.5-11.7-5.5
		c-2.9,0-5.5,0.6-7.7,1.9c-2.3,1.3-4,3-5.3,5.3c-1.3,2.3-1.9,4.8-1.9,7.7c0,2.9,0.6,5.5,1.9,7.7c1.3,2.2,3,4,5.3,5.3
		c2.3,1.3,4.8,1.9,7.7,1.9c4.7,0,8.6-1.8,11.7-5.5l6.9,6.4c-2.2,2.7-5,4.8-8.3,6.2c-3.3,1.4-7,2.1-11,2.1
		C64.3,443.9,60,442.9,56.2,440.8z"/>
	<path id="XMLID_64_" class="st0" d="M138.4,396.4v46.7h-10.8V424h-21.2v19.1H95.6v-46.7h10.8v18.4h21.2v-18.4H138.4z"/>
	<path id="XMLID_66_" class="st0" d="M192.3,396.4v46.7h-8.9l-23.3-28.3v28.3h-10.7v-46.7h8.9l23.2,28.3v-28.3H192.3z"/>
	<path id="XMLID_68_" class="st0" d="M203.4,396.4h10.8v46.7h-10.8V396.4z"/>
	<path id="XMLID_70_" class="st0" d="M261.4,434.5v8.7h-36.1v-46.8h35.3v8.7H236v10.1h21.7v8.4H236v10.8h25.4V434.5z"/>
</g>
<g id="XMLID_4_">
	<path id="XMLID_72_" class="st0" d="M28.2,481.9c-1.2-0.4-2.2-0.8-2.9-1.4l1.3-2.9c0.7,0.5,1.5,0.9,2.5,1.2s1.9,0.5,2.9,0.5
		c1.1,0,1.9-0.2,2.4-0.5c0.5-0.3,0.8-0.8,0.8-1.3c0-0.4-0.2-0.7-0.5-1c-0.3-0.3-0.7-0.5-1.2-0.6c-0.5-0.2-1.1-0.3-1.9-0.5
		c-1.3-0.3-2.3-0.6-3.1-0.9c-0.8-0.3-1.5-0.8-2.1-1.4s-0.9-1.5-0.9-2.6c0-1,0.3-1.8,0.8-2.6c0.5-0.8,1.3-1.4,2.3-1.8
		c1-0.5,2.3-0.7,3.8-0.7c1.1,0,2.1,0.1,3.1,0.4c1,0.3,1.9,0.6,2.6,1.1l-1.2,2.9c-1.5-0.9-3-1.3-4.6-1.3c-1.1,0-1.9,0.2-2.4,0.5
		c-0.5,0.3-0.8,0.8-0.8,1.4c0,0.6,0.3,1,0.9,1.3c0.6,0.3,1.5,0.5,2.7,0.8c1.3,0.3,2.3,0.6,3.1,0.9c0.8,0.3,1.5,0.8,2.1,1.4
		s0.9,1.5,0.9,2.6c0,0.9-0.3,1.8-0.8,2.6c-0.5,0.8-1.3,1.4-2.4,1.8c-1.1,0.5-2.3,0.7-3.8,0.7C30.7,482.4,29.4,482.3,28.2,481.9z
		 M33.3,460.9h4l-4.3,3.4h-2.9L33.3,460.9z"/>
	<path id="XMLID_75_" class="st0" d="M75.9,465.7l-5.4,16.5h-4.1L62.8,471l-3.7,11.2H55l-5.4-16.5h4l3.7,11.6l3.9-11.6h3.5l3.8,11.7
		l3.8-11.7H75.9z"/>
	<path id="XMLID_77_" class="st0" d="M87.4,465.7h3.8v16.5h-3.8V465.7z"/>
	<path id="XMLID_79_" class="st0" d="M115.4,478.6h-7.6l-1.5,3.5h-3.9l7.3-16.5h3.8l7.4,16.5h-4L115.4,478.6z M114.2,475.7l-2.6-6.3
		l-2.6,6.3H114.2z"/>
	<path id="XMLID_82_" class="st0" d="M134.6,468.8h-5.3v-3.1h14.4v3.1h-5.3v13.4h-3.8L134.6,468.8L134.6,468.8z"/>
	<path id="XMLID_84_" class="st0" d="M165.2,478.6h-7.6l-1.5,3.5h-3.9l7.3-16.5h3.8l7.4,16.5h-4L165.2,478.6z M164,475.7l-2.6-6.3
		l-2.6,6.3H164z"/>
</g>
<g id="XMLID_2_">
	<polygon class="st0" points="285.9,476.5 185.3,476.5 185.3,473.5 282.9,473.5 282.9,368.9 209.7,368.9 209.7,365.9 285.9,365.9 	
		"/>
</g>
<g id="XMLID_1_">
	<polygon class="st0" points="6.8,476.5 -79.6,476.5 -79.6,365.9 214.6,365.9 214.6,368.9 -76.6,368.9 -76.6,473.5 6.8,473.5 	"/>
</g>
</svg>
